<?xml version="1.0"?>
<svg xmlns="http://www.w3.org/2000/svg" viewBox="0 0 24 24" enable-background="new 0 0 24 24">
    <path d="M 6.09375 2 C 5.39375 2 4.80625 2.4 4.40625 3 L 2.1875 6.59375 C 2.0875 6.79375 2 7.2 2 7.5 L 2 20 C 2 21.1 2.9 22 4 22 L 20 22 C 21.1 22 22 21.1 22 20 L 22 14 L 22 7.5 C 22 7.2 21.9125 6.8 21.8125 6.5 L 19.59375 3 C 19.19375 2.4 18.60625 2 17.90625 2 L 6.09375 2 z M 6.09375 4 L 17.90625 4 L 19.09375 6 L 4.90625 6 L 6.09375 4 z M 4 8 L 20 8 L 20 14 L 20 20 L 4 20 L 4 8 z M 9.8125 10 A 1.001098 1.001098 0 0 0 10 12 L 14 12 A 1.0001 1.0001 0 1 0 14 10 L 10 10 A 1.0001 1.0001 0 0 0 9.90625 10 A 1.001098 1.001098 0 0 0 9.8125 10 z"/>
</svg>
